# xmcd CD database file
#
# Track frame offsets:
#	150
#	17612
#	32114
#	48805
#	66178
#	82127
#	99811
#	118369
#	135290
#	151202
#	166780
#	184733
#	200972
#	215585
#
# Disc length: 3012 seconds
#
# Revision: 5
# Processed by: cddbd v1.4PL0 Copyright (c) Steve Scherf et al.
# Submitted via: CDex 1.51
#
DISCID=bb0bc20e
DTITLE=Chrystian and Ralf - 14 Maiores Sucessos
DYEAR=1900
DGENRE=Country
TTITLE0=Minha Gioconda (Mia Gioconda)
TTITLE1=Vida Divina
TTITLE2=Nova York
TTITLE3=Ausência
TTITLE4=É Desse Jeito Que A Gente Se Ama
TTITLE5=Prazer Por Prazer
TTITLE6=Esse Amor Que Me Mata
TTITLE7=Louco Por Ela
TTITLE8=Loucura Demais
TTITLE9=Cheiro De Shampoo
TTITLE10=Esperando Você Chegar
TTITLE11=Brigar
TTITLE12=Chora Peito
TTITLE13=Ladrão De Mulher
EXTD=
EXTT0=
EXTT1=
EXTT2=
EXTT3=
EXTT4=
EXTT5=
EXTT6=
EXTT7=
EXTT8=
EXTT9=
EXTT10=
EXTT11=
EXTT12=
EXTT13=
PLAYORDER=
